<?xml version="1.0" encoding="UTF-8" standalone="no"?>
<!-- Created with Inkscape (http://www.inkscape.org/) -->

<svg
   width="210mm"
   height="297mm"
   viewBox="0 0 210 297"
   version="1.1"
   id="svg1625"
   inkscape:version="1.1.1 (3bf5ae0d25, 2021-09-20)"
   sodipodi:docname="dibujologofacial.svg"
   xmlns:inkscape="http://www.inkscape.org/namespaces/inkscape"
   xmlns:sodipodi="http://sodipodi.sourceforge.net/DTD/sodipodi-0.dtd"
   xmlns="http://www.w3.org/2000/svg"
   xmlns:svg="http://www.w3.org/2000/svg">
  <sodipodi:namedview
     id="namedview1627"
     pagecolor="#ffffff"
     bordercolor="#666666"
     borderopacity="1.0"
     inkscape:pageshadow="2"
     inkscape:pageopacity="0.0"
     inkscape:pagecheckerboard="0"
     inkscape:document-units="mm"
     showgrid="false"
     inkscape:zoom="0.65512531"
     inkscape:cx="393.81779"
     inkscape:cy="705.97181"
     inkscape:window-width="1366"
     inkscape:window-height="705"
     inkscape:window-x="-8"
     inkscape:window-y="-8"
     inkscape:window-maximized="1"
     inkscape:current-layer="layer1"
     showguides="false" />
  <defs
     id="defs1622" />
  <g
     inkscape:groupmode="layer"
     id="layer3"
     inkscape:label="Capa 3" />
  <g
     inkscape:groupmode="layer"
     id="layer2"
     inkscape:label="Capa 2" />
  <g
     inkscape:label="Capa 1"
     inkscape:groupmode="layer"
     id="layer1">
    <g
       id="g30119">
      <g
         id="g19275"
         transform="translate(-1.6868499,15.008089)"
         style="stroke-width:1.4;stroke-miterlimit:4;stroke-dasharray:none">
        <path
           style="fill:none;stroke:#800080;stroke-width:1.4;stroke-linecap:butt;stroke-linejoin:miter;stroke-miterlimit:4;stroke-dasharray:none;stroke-opacity:1"
           d="m 81.034998,216.43648 c 3.961891,-7.8158 4.261219,-21.65817 -7.616873,-23.50498 -13.886012,-3.87748 6.648849,11.43108 3.279763,16.96297 -0.03184,7.13708 -4.311735,12.23107 -9.371962,16.76048 -3.220323,3.83349 -7.031781,8.24935 -7.914363,0.39651 -0.313769,-5.99899 -16.316947,-11.55362 -8.340012,-16.12328 8.585712,-1.40961 6.219895,8.87918 5.33862,14.00025 -0.235989,4.53865 -0.852957,9.08902 -6.310657,7.50035 -2.783759,-0.39993 -6.253873,0.83514 -8.569691,-0.6795 -4.185935,-4.60823 -12.301819,-9.4659 -7.425732,-16.40086 -0.463932,-5.95007 9.941161,-10.0538 9.526642,-12.30364 -6.855026,-0.0613 -15.30308,5.03399 -14.921623,12.40136 -5.265092,-7.04737 -8.391103,-17.49995 -5.495458,-26.16607 2.143567,-8.44806 10.501499,-12.22308 18.412848,-13.12408 3.176898,-0.17095 13.29839,0.37035 5.723837,-3.486 -7.809999,-3.11861 -16.485193,-2.55004 -23.552863,2.01966 3.638426,-6.75136 11.213909,-9.29894 17.542333,-12.79837 6.569479,0.88358 17.155195,-1.17621 20.215391,5.94902 0.855836,10.48722 -9.349843,-3.56965 -13.439753,-5.0198 -8.466738,-3.23495 5.183727,-8.51396 9.255506,-6.21 10.519267,0.12463 18.361264,12.55354 13.245823,21.97104 -4.447821,6.80704 -8.523869,13.93155 -14.19137,19.89603 -2.690578,3.38881 -5.881143,7.44906 -1.841686,1.06734 3.185134,-5.31374 5.418749,-11.57663 11.045697,-14.87975 5.978068,-2.92238 8.807627,-11.93627 16.006312,-10.76572 5.94965,-0.38736 14.312932,-0.53878 16.530972,6.26004 2.065871,5.78568 3.733061,17.00017 -1.6696,18.46119 -3.360726,-5.91119 -12.014994,-13.04594 -17.606989,-16.2416 0.02598,-6.32605 8.910054,4.31784 9.97253,7.18231 4.895866,5.14071 8.245499,14.33107 1.227361,19.21933 -2.549531,3.02828 -5.360282,6.04199 -9.055003,7.65577 z"
           id="path10744"
           sodipodi:nodetypes="ccccccccccccccccccccccccccccccc" />
        <path
           style="fill:none;stroke:#800080;stroke-width:1.4;stroke-linecap:butt;stroke-linejoin:miter;stroke-miterlimit:4;stroke-dasharray:none;stroke-opacity:1"
           d="m 81.034998,216.43648 c 6.398521,19.53233 12.145832,26.61625 23.486632,29.85394 7.08993,2.57406 12.91493,4.72561 20.08743,3.50127 8.25302,-0.84319 9.73378,-8.47484 3.10677,-12.8442 -4.65154,-5.8009 -1.43523,-13.31119 6.11009,-12.17982 7.67232,-2.8945 6.86182,-12.62052 0.0469,-15.9091 -3.86037,-1.855 -9.02426,-0.7002 -7.33815,-6.82588 0.73603,-6.79182 -11.15896,-13.25475 -12.28214,-3.3966 3.16069,4.76583 9.09615,-2.89842 3.68113,-2.29733 -1.22849,3.08124 12.05437,4.07756 12.13626,0.011 -4.03662,-0.0185 4.8283,5.81153 5.4512,-1.06115 -3.07367,-7.42791 -7.09161,-16.26902 -4.88669,-24.61693 1.59455,-7.8345 5.5471,-14.47045 12.95078,-17.98391 6.02138,-3.44799 11.68544,-2.69541 18.41084,-3.43329 8.68301,2.96581 18.03959,9.13214 10.55816,18.20935 -4.44774,6.3727 -13.44134,5.84454 -20.33075,7.44759 -3.77816,1.48308 -16.35501,-3.32156 -5.99654,-2.92366 5.64684,0.38761 24.35767,9.65409 13.58996,3.63305 -2.73558,-7.09909 12.8534,2.61927 10.90351,-6.11049 -4.31748,2.16672 8.96626,-0.33299 10.69489,-1.40776"
           id="path10746"
           sodipodi:nodetypes="cccccccccccccccccccc" />
        <path
           style="fill:none;stroke:#800080;stroke-width:1.4;stroke-linecap:butt;stroke-linejoin:miter;stroke-miterlimit:4;stroke-dasharray:none;stroke-opacity:1"
           d="m 60.187882,156.7509 c -2.812085,-8.30919 -4.861205,-17.57692 -3.888907,-25.9119 1.238116,-5.78581 3.346706,-10.17402 11.242513,-13.99747 6.158725,-2.49516 13.326327,0.87969 5.443415,2.19958 -6.46591,0.52238 -14.087552,8.70278 -15.51,14.42231 -1.700914,4.58094 3.6686,13.20799 6.221643,11.65981 -2.189655,-5.99 1.171136,-19.32665 8.216685,-16.9692 3.311967,4.88964 -9.074915,11.47269 -5.763903,18.97182 2.218517,4.52331 12.87981,26.538 9.491399,0.21254 -0.909806,-5.02479 6.067382,-16.12612 5.608453,-5.50889 -4.251166,7.41891 -2.767889,18.32596 4.783757,20.14542 2.66814,1.3405 15.752463,3.93391 15.070323,-3.98227 -1.09795,-5.76179 1.54009,-15.61548 -3.628881,-17.80108 -6.788137,3.05525 -3.006139,13.05819 1.63243,17.04928 4.166471,4.8482 16.871201,0.73784 24.050781,6.50668 5.07262,-5.35453 4.5918,-16.14247 -1.81237,-20.39055 -6.64298,-5.46071 -13.8928,-0.1512 -7.09482,5.75584 5.63682,1.47629 16.3235,2.36707 15.52292,-6.4807 -0.0312,-7.02861 -0.56104,-12.08844 -10.02754,-11.86159 -7.00785,1.1874 -19.820871,2.59972 -19.72553,-3.48075 0.36529,-6.86811 10.87901,-7.00449 16.83015,-4.35157 5.91149,1.28307 12.78989,11.3519 9.09872,0.33357 -2.26748,-6.7589 -3.2797,-13.62395 -11.6495,-11.67145 -6.68384,0.937 -18.912931,9.66229 -22.674526,2.56157 -3.638336,-8.09093 5.571785,-13.64486 12.847296,-12.34932 4.91281,-0.0677 17.94548,3.90356 9.08625,-3.514948 C 105.24866,92.4159 101.68281,87.26063 93.215995,87.622147 83.804514,87.777625 76.313209,94.803453 75.99644,105.89173 c -0.939084,7.12949 -2.041466,12.07295 6.509823,11.02274 14.803936,12.85089 14.965786,13.17241 20.069907,21.6196 1.19405,1.75613 2.49103,3.45503 4.01792,4.9375"
           id="path10861"
           sodipodi:nodetypes="ccccccccccccccccccccccccccccccc" />
        <path
           style="fill:none;stroke:#800080;stroke-width:1.4;stroke-linecap:butt;stroke-linejoin:miter;stroke-miterlimit:4;stroke-dasharray:none;stroke-opacity:1"
           d="m 122.58644,207.65499 c -4.39147,-2.67375 -12.6304,2.5926 -13.2715,8.52604 7.91521,-1.81316 22.72266,-5.80147 30.03817,0.73182 -1.16616,2.47715 -17.71828,2.29295 -21.9455,0.41859 -8.02128,-1.36459 -12.60205,1.53286 -3.80136,5.3834 4.15573,2.70515 15.55853,2.16983 20.21967,2.05283"
           id="path10976"
           sodipodi:nodetypes="cccccc" />
        <path
           style="fill:none;stroke:#800080;stroke-width:1.4;stroke-linecap:butt;stroke-linejoin:miter;stroke-miterlimit:4;stroke-dasharray:none;stroke-opacity:1"
           d="m 120.94437,207.15523 c 4.16109,1.69819 6.60838,-0.39774 6.35154,-0.68312 v 0 0 l 0.35697,0.0714 v 0"
           id="path19071"
           sodipodi:nodetypes="cccccc" />
      </g>
      <g
         id="g19746"
         transform="translate(0.6131501,15.008089)"
         style="stroke:#008080;stroke-width:1.4;stroke-miterlimit:4;stroke-dasharray:none">
        <path
           style="fill:none;stroke:#008080;stroke-width:1.4;stroke-linecap:butt;stroke-linejoin:miter;stroke-miterlimit:4;stroke-dasharray:none;stroke-opacity:1"
           d="m 81.034998,216.43648 c 3.961891,-7.8158 4.261219,-21.65817 -7.616873,-23.50498 -13.886012,-3.87748 6.648849,11.43108 3.279763,16.96297 -0.03184,7.13708 -4.311735,12.23107 -9.371962,16.76048 -3.220323,3.83349 -7.031781,8.24935 -7.914363,0.39651 -0.313769,-5.99899 -16.316947,-11.55362 -8.340012,-16.12328 8.585712,-1.40961 6.219895,8.87918 5.33862,14.00025 -0.235989,4.53865 -0.852957,9.08902 -6.310657,7.50035 -2.783759,-0.39993 -6.253873,0.83514 -8.569691,-0.6795 -4.185935,-4.60823 -12.301819,-9.4659 -7.425732,-16.40086 -0.463932,-5.95007 9.941161,-10.0538 9.526642,-12.30364 -6.855026,-0.0613 -15.30308,5.03399 -14.921623,12.40136 -5.265092,-7.04737 -8.391103,-17.49995 -5.495458,-26.16607 2.143567,-8.44806 10.501499,-12.22308 18.412848,-13.12408 3.176898,-0.17095 13.29839,0.37035 5.723837,-3.486 -7.809999,-3.11861 -16.485193,-2.55004 -23.552863,2.01966 3.638426,-6.75136 11.213909,-9.29894 17.542333,-12.79837 6.569479,0.88358 17.155195,-1.17621 20.215391,5.94902 0.855836,10.48722 -9.349843,-3.56965 -13.439753,-5.0198 -8.466738,-3.23495 5.183727,-8.51396 9.255506,-6.21 10.519267,0.12463 18.361264,12.55354 13.245823,21.97104 -4.447821,6.80704 -8.523869,13.93155 -14.19137,19.89603 -2.690578,3.38881 -5.881143,7.44906 -1.841686,1.06734 3.185134,-5.31374 5.418749,-11.57663 11.045697,-14.87975 5.978068,-2.92238 8.807627,-11.93627 16.006312,-10.76572 5.94965,-0.38736 14.312932,-0.53878 16.530972,6.26004 2.065871,5.78568 3.733061,17.00017 -1.6696,18.46119 -3.360726,-5.91119 -12.014994,-13.04594 -17.606989,-16.2416 0.02598,-6.32605 8.910054,4.31784 9.97253,7.18231 4.895866,5.14071 8.245499,14.33107 1.227361,19.21933 -2.549531,3.02828 -5.360282,6.04199 -9.055003,7.65577 z"
           id="path19736"
           sodipodi:nodetypes="ccccccccccccccccccccccccccccccc" />
        <path
           style="fill:none;stroke:#008080;stroke-width:1.4;stroke-linecap:butt;stroke-linejoin:miter;stroke-miterlimit:4;stroke-dasharray:none;stroke-opacity:1"
           d="m 81.034998,216.43648 c 6.398521,19.53233 12.145832,26.61625 23.486632,29.85394 7.08993,2.57406 12.91493,4.72561 20.08743,3.50127 8.25302,-0.84319 9.73378,-8.47484 3.10677,-12.8442 -4.65154,-5.8009 -1.43523,-13.31119 6.11009,-12.17982 7.67232,-2.8945 6.86182,-12.62052 0.0469,-15.9091 -3.86037,-1.855 -9.02426,-0.7002 -7.33815,-6.82588 0.73603,-6.79182 -11.15896,-13.25475 -12.28214,-3.3966 3.16069,4.76583 9.09615,-2.89842 3.68113,-2.29733 -1.22849,3.08124 12.05437,4.07756 12.13626,0.011 -4.03662,-0.0185 4.8283,5.81153 5.4512,-1.06115 -3.07367,-7.42791 -7.09161,-16.26902 -4.88669,-24.61693 1.59455,-7.8345 5.5471,-14.47045 12.95078,-17.98391 6.02138,-3.44799 11.68544,-2.69541 18.41084,-3.43329 8.68301,2.96581 18.03959,9.13214 10.55816,18.20935 -4.44774,6.3727 -13.44134,5.84454 -20.33075,7.44759 -3.77816,1.48308 -16.35501,-3.32156 -5.99654,-2.92366 5.64684,0.38761 24.35767,9.65409 13.58996,3.63305 -2.73558,-7.09909 12.8534,2.61927 10.90351,-6.11049 -4.31748,2.16672 8.96626,-0.33299 10.69489,-1.40776"
           id="path19738"
           sodipodi:nodetypes="cccccccccccccccccccc" />
        <path
           style="fill:none;stroke:#008080;stroke-width:1.4;stroke-linecap:butt;stroke-linejoin:miter;stroke-miterlimit:4;stroke-dasharray:none;stroke-opacity:1"
           d="m 60.187882,156.7509 c -2.812085,-8.30919 -4.861205,-17.57692 -3.888907,-25.9119 1.238116,-5.78581 3.346706,-10.17402 11.242513,-13.99747 6.158725,-2.49516 13.326327,0.87969 5.443415,2.19958 -6.46591,0.52238 -14.087552,8.70278 -15.51,14.42231 -1.700914,4.58094 3.6686,13.20799 6.221643,11.65981 -2.189655,-5.99 1.171136,-19.32665 8.216685,-16.9692 3.311967,4.88964 -9.074915,11.47269 -5.763903,18.97182 2.218517,4.52331 12.87981,26.538 9.491399,0.21254 -0.909806,-5.02479 6.067382,-16.12612 5.608453,-5.50889 -4.251166,7.41891 -2.767889,18.32596 4.783757,20.14542 2.66814,1.3405 15.752463,3.93391 15.070323,-3.98227 -1.09795,-5.76179 1.54009,-15.61548 -3.628881,-17.80108 -6.788137,3.05525 -3.006139,13.05819 1.63243,17.04928 4.166471,4.8482 16.871201,0.73784 24.050781,6.50668 5.07262,-5.35453 4.5918,-16.14247 -1.81237,-20.39055 -6.64298,-5.46071 -13.8928,-0.1512 -7.09482,5.75584 5.63682,1.47629 16.3235,2.36707 15.52292,-6.4807 -0.0312,-7.02861 -0.56104,-12.08844 -10.02754,-11.86159 -7.00785,1.1874 -19.820871,2.59972 -19.72553,-3.48075 0.36529,-6.86811 10.87901,-7.00449 16.83015,-4.35157 5.91149,1.28307 12.78989,11.3519 9.09872,0.33357 -2.26748,-6.7589 -3.2797,-13.62395 -11.6495,-11.67145 -6.68384,0.937 -18.912931,9.66229 -22.674526,2.56157 -3.638336,-8.09093 5.571785,-13.64486 12.847296,-12.34932 4.91281,-0.0677 17.94548,3.90356 9.08625,-3.514948 C 105.24866,92.4159 101.68281,87.26063 93.215995,87.622147 83.804514,87.777625 76.313209,94.803453 75.99644,105.89173 c -0.939084,7.12949 -2.041466,12.07295 6.509823,11.02274 14.803936,12.85089 14.965786,13.17241 20.069907,21.6196 1.19405,1.75613 2.49103,3.45503 4.01792,4.9375"
           id="path19740"
           sodipodi:nodetypes="ccccccccccccccccccccccccccccccc" />
        <path
           style="fill:none;stroke:#008080;stroke-width:1.4;stroke-linecap:butt;stroke-linejoin:miter;stroke-miterlimit:4;stroke-dasharray:none;stroke-opacity:1"
           d="m 122.58644,207.65499 c -4.39147,-2.67375 -12.6304,2.5926 -13.2715,8.52604 7.91521,-1.81316 22.72266,-5.80147 30.03817,0.73182 -1.16616,2.47715 -17.71828,2.29295 -21.9455,0.41859 -8.02128,-1.36459 -12.60205,1.53286 -3.80136,5.3834 4.15573,2.70515 15.55853,2.16983 20.21967,2.05283"
           id="path19742"
           sodipodi:nodetypes="cccccc" />
        <path
           style="fill:none;stroke:#008080;stroke-width:1.4;stroke-linecap:butt;stroke-linejoin:miter;stroke-miterlimit:4;stroke-dasharray:none;stroke-opacity:1"
           d="m 120.94437,207.15523 c 4.16109,1.69819 6.60838,-0.39774 6.35154,-0.68312 v 0 0 l 0.35697,0.0714 v 0"
           id="path19744"
           sodipodi:nodetypes="cccccc" />
      </g>
    </g>
  </g>
</svg>
