<?xml version="1.0" encoding="UTF-8" standalone="no"?>
<!-- Created with Inkscape (http://www.inkscape.org/) -->

<svg
   width="210mm"
   height="297mm"
   viewBox="0 0 210 297"
   version="1.1"
   id="svg37952"
   inkscape:version="1.1.1 (3bf5ae0d25, 2021-09-20)"
   sodipodi:docname="dibujologoaparato.svg"
   xmlns:inkscape="http://www.inkscape.org/namespaces/inkscape"
   xmlns:sodipodi="http://sodipodi.sourceforge.net/DTD/sodipodi-0.dtd"
   xmlns="http://www.w3.org/2000/svg"
   xmlns:svg="http://www.w3.org/2000/svg">
  <sodipodi:namedview
     id="namedview37954"
     pagecolor="#ffffff"
     bordercolor="#666666"
     borderopacity="1.0"
     inkscape:pageshadow="2"
     inkscape:pageopacity="0.0"
     inkscape:pagecheckerboard="0"
     inkscape:document-units="mm"
     showgrid="false"
     inkscape:zoom="0.15653715"
     inkscape:cx="-217.20083"
     inkscape:cy="284.27756"
     inkscape:window-width="1366"
     inkscape:window-height="705"
     inkscape:window-x="-8"
     inkscape:window-y="-8"
     inkscape:window-maximized="1"
     inkscape:current-layer="layer1"
     showguides="true" />
  <defs
     id="defs37949" />
  <g
     inkscape:label="Capa 1"
     inkscape:groupmode="layer"
     id="layer1">
    <g
       id="g16157"
       inkscape:export-filename="C:\Users\ASUS\Desktop\kathia\Zinnia\aparatoLogo.PNG"
       inkscape:export-xdpi="28.745399"
       inkscape:export-ydpi="28.745399">
      <path
         style="fill:none;stroke:#800080;stroke-width:1;stroke-linecap:butt;stroke-linejoin:miter;stroke-miterlimit:4;stroke-dasharray:none;stroke-opacity:1"
         d="m 150.06866,146.93134 c 3.28421,21.49029 0.50651,45.75829 -14.42612,62.5767 -13.07689,13.71895 -32.30016,24.12303 -51.717719,20.2986 C 69.794558,227.14674 49.136158,208.81441 49.136158,208.81441 33.136687,194.98232 20.263497,153.20425 23.56798,122.62137 c 1.124922,-7.4795 2.123584,-15.26997 5.457638,-22.11091 9.821645,-15.889945 34.54313,-17.318767 47.38129,-4.399623 8.54244,8.664553 9.168199,21.640323 10.231977,33.067643 0.471289,12.72801 -2.090049,25.74334 -8.444875,36.86534 3.902634,5.8899 13.438565,3.49395 17.394069,5.13084 0.06886,0.32092 0.137723,0.64185 0.206585,0.96277"
         id="path163"
         sodipodi:nodetypes="ccscccssccc" />
      <path
         style="fill:none;stroke:#800080;stroke-width:1.88;stroke-linecap:butt;stroke-linejoin:miter;stroke-miterlimit:4;stroke-dasharray:none;stroke-opacity:1"
         d="m 115.02055,156.83906 c 7.37145,2.7946 14.74288,5.58922 22.11432,8.38383 2.40203,-5.48474 4.80406,-10.96949 7.20609,-16.45422 -8.60575,-3.12045 -17.21149,-6.2409 -25.81724,-9.36134 -1.16772,5.81057 -2.33545,11.62115 -3.50317,17.43173 z"
         id="path25011"
         sodipodi:nodetypes="ccccc" />
      <path
         style="fill:none;stroke:#800080;stroke-width:1.88;stroke-linecap:butt;stroke-linejoin:miter;stroke-miterlimit:4;stroke-dasharray:none;stroke-opacity:1"
         d="m 149.48562,148.8277 c 5.97864,-17.90034 11.1573,-37.36348 8.28245,-56.788586 -1.02928,-7.300252 -6.98421,-13.710637 -13.43806,-12.026329 -5.57962,0.948407 -8.59834,7.927993 -11.82339,12.621418 -2.97328,4.566742 -5.47103,9.667987 -7.78354,14.539777"
         id="path25013"
         sodipodi:nodetypes="ccsss" />
      <path
         style="fill:none;stroke:#800080;stroke-width:1.88;stroke-linecap:butt;stroke-linejoin:miter;stroke-miterlimit:4;stroke-dasharray:none;stroke-opacity:1"
         d="m 198.62989,145.49328 c -5.08302,-4.72787 -13.42288,-5.88702 -16.25063,-12.91996 -3.56586,-6.80873 -7.35104,-15.0414 -3.73239,-22.61751 3.12372,-7.96763 9.08607,-15.528905 7.78836,-24.579237 -0.29187,-6.145747 -1.35614,-13.972965 -7.81307,-16.567127 -4.5439,-2.068498 -9.11286,-6.497429 -14.45856,-4.114462 -6.03364,1.970906 -12.98507,5.73626 -13.69975,12.776828 -0.18313,0.886754 -0.38453,1.77394 -0.7046,2.62308"
         id="path25015"
         sodipodi:nodetypes="cccccccc" />
      <path
         style="fill:none;stroke:#800080;stroke-width:1.88;stroke-linecap:butt;stroke-linejoin:miter;stroke-miterlimit:4;stroke-dasharray:none;stroke-opacity:1"
         d="m 118.52372,139.40733 c -1.08397,-0.67558 -3.66508,-0.76185 -3.18825,-2.65578 0.80238,-3.62391 3.6136,-12.60737 5.79473,-19.39574 1.2705,-3.65258 2.54099,-7.30516 3.8115,-10.95773"
         id="path25017"
         sodipodi:nodetypes="cccc" />
      <path
         style="fill:none;stroke:#800080;stroke-width:1.88;stroke-linecap:butt;stroke-linejoin:miter;stroke-miterlimit:4;stroke-dasharray:none;stroke-opacity:1"
         d="m 134.56909,114.10802 c -1.87667,4.48831 -5.18681,10.12817 -2.71069,15.10002 2.97807,5.47347 8.17492,3.59951 11.06037,-3.20671 0,0 5.1991,-14.3319 -1.30818,-16.53731 -3.14809,-1.26944 -5.39447,1.97604 -7.0415,4.644 z"
         id="path25019"
         sodipodi:nodetypes="ccccc" />
      <path
         style="fill:none;stroke:#800080;stroke-width:1.88;stroke-linecap:butt;stroke-linejoin:miter;stroke-miterlimit:4;stroke-dasharray:none;stroke-opacity:1"
         d="m 144.34096,148.76867 c 1.60341,0.27227 4.92014,2.3509 5.7277,-1.83733"
         id="path1425"
         sodipodi:nodetypes="cc" />
      <path
         style="fill:none;stroke:#800080;stroke-width:1.88;stroke-linecap:butt;stroke-linejoin:miter;stroke-miterlimit:4;stroke-dasharray:none;stroke-opacity:1"
         d="m 115.71799,100.20109 c -1.95622,-2.631897 -0.41421,-6.873033 1.43404,-8.448644 0,0 2.55682,-3.212 5.32927,-3.267464"
         id="path4348"
         sodipodi:nodetypes="ccc" />
      <path
         style="fill:none;stroke:#800080;stroke-width:1.88;stroke-linecap:butt;stroke-linejoin:miter;stroke-miterlimit:4;stroke-dasharray:none;stroke-opacity:1"
         d="m 105.69743,102.75798 c -2.01907,-6.731819 -0.77883,-13.237316 1.68528,-16.828505 2.1198,-4.076321 7.09877,-7.420747 11.80842,-8.122948"
         id="path4350"
         sodipodi:nodetypes="ccc" />
      <path
         style="fill:none;stroke:#800080;stroke-width:1;stroke-linecap:butt;stroke-linejoin:miter;stroke-miterlimit:4;stroke-dasharray:none;stroke-opacity:1"
         d="m 71.269727,187.27527 c 2.174727,-0.61461 4.316997,-1.5228 6.286389,-2.98909 2.457321,-1.39119 5.011831,-2.50021 7.627161,-3.06959 1.895354,-0.65013 3.819323,4.97141 5.318297,2.76876 1.424492,-2.00105 3.175895,-2.79152 4.83467,-1.65073 4.023762,1.98023 7.859016,4.60774 11.798486,6.87841 -3.57037,4.67427 -7.379264,8.39121 -10.961377,11.74255 -0.97384,0.24891 0,0 -0.84423,0.6893 -5.221846,1.08134 -6.890186,0.39881 -11.583119,-1.90719 0,0 -3.354697,-2.45142 -4.462814,-4.69812 -1.646738,-2.20388 -3.573854,-4.31709 -5.406368,-6.19072 -0.57366,-0.61092 -2.615243,-1.36627 -2.319025,-1.54725 3.09082,0.27409 5.911426,2.21532 8.800389,3.53133 2.0153,0.66651 4.051454,1.14069 6.117275,1.36709 7.280493,1.40345 13.955409,-1.15337 20.659249,-2.98711"
         id="path5092"
         sodipodi:nodetypes="ccccccccccccccc"
         inkscape:transform-center-x="1.7639851"
         inkscape:transform-center-y="100.49308" />
      <path
         style="fill:#800080;stroke:#800080;stroke-width:0.429051px;stroke-linecap:butt;stroke-linejoin:miter;stroke-opacity:1"
         d="m 72.733154,123.44041 c -4.598909,2.76843 -14.57793,7.83574 -19.610993,9.31712 4.039293,-1.48884 7.948039,-3.70422 11.031787,-6.09616 -5.455616,0.99876 -10.525618,3.02537 -15.966198,4.07148 -2.205219,0.45933 -4.437232,1.06859 -6.669202,1.29307 1.642147,-0.2859 2.940076,-0.70901 4.420723,-1.31223 1.554518,-0.60438 4.2101,-0.89027 4.463569,-2.6098 -0.091,-1.37691 -2.131466,-1.94683 -3.668211,-1.97899 -2.98947,-0.1042 -5.849528,0.82139 -8.811316,1.04715 -1.457167,0.1607 -4.124688,0.45603 -4.832946,0.50639 2.307931,-0.37176 6.411061,-0.51566 7.95342,-2.18942 1.130586,-1.52796 -3.498134,-3.57751 -3.498134,-3.57751 -1.903417,-0.8441 -2.96629,-1.58172 -5.061463,-1.36247 -2.896783,0.0975 -6.540809,0.40179 -9.421324,0.17132 3.37729,0.54459 7.794428,-1.61533 7.794428,-1.61533 0,0 2.290113,-1.62542 1.334394,-3.30442 -0.111241,-1.94235 1.541846,1.2414 2.254503,1.65971 2.408218,1.83435 4.978311,3.9342 7.735089,5.46424 2.280959,0.91959 6.294612,2.54201 8.905914,2.6702 2.770809,0.51382 4.941376,1.14336 7.999245,0.54778 3.612791,-0.75582 16.138749,-6.41945 16.138749,-6.41945 z"
         id="path85"
         sodipodi:nodetypes="cccccccccssscccccccccc" />
      <path
         style="fill:none;stroke:#000000;stroke-width:0.264583px;stroke-linecap:butt;stroke-linejoin:miter;stroke-opacity:1"
         d="M 32.191687,115.80061 Z"
         id="path14019" />
    </g>
  </g>
</svg>
