<?xml version="1.0" encoding="UTF-8" standalone="no"?>
<!-- Created with Inkscape (http://www.inkscape.org/) -->

<svg
   width="210mm"
   height="297mm"
   viewBox="0 0 210 297"
   version="1.1"
   id="svg50"
   inkscape:version="1.1.1 (3bf5ae0d25, 2021-09-20)"
   sodipodi:docname="logofacial1.svg"
   xmlns:inkscape="http://www.inkscape.org/namespaces/inkscape"
   xmlns:sodipodi="http://sodipodi.sourceforge.net/DTD/sodipodi-0.dtd"
   xmlns="http://www.w3.org/2000/svg"
   xmlns:svg="http://www.w3.org/2000/svg">
  <sodipodi:namedview
     id="namedview52"
     pagecolor="#ffffff"
     bordercolor="#666666"
     borderopacity="1.0"
     inkscape:pageshadow="2"
     inkscape:pageopacity="0.0"
     inkscape:pagecheckerboard="0"
     inkscape:document-units="mm"
     showgrid="false"
     inkscape:zoom="0.46324355"
     inkscape:cx="66.919443"
     inkscape:cy="677.8292"
     inkscape:window-width="1350"
     inkscape:window-height="728"
     inkscape:window-x="0"
     inkscape:window-y="0"
     inkscape:window-maximized="0"
     inkscape:current-layer="layer1" />
  <defs
     id="defs47" />
  <g
     inkscape:label="Capa 1"
     inkscape:groupmode="layer"
     id="layer1">
    <g
       id="g8053"
       inkscape:export-filename="C:\Users\ASUS\Desktop\kathia\Zinnia\logoFacial.png"
       inkscape:export-xdpi="35.574776"
       inkscape:export-ydpi="35.574776">
      <path
         style="fill:none;stroke:#800080;stroke-width:2;stroke-linecap:butt;stroke-linejoin:miter;stroke-miterlimit:4;stroke-dasharray:none;stroke-opacity:1"
         d="m 85.673077,90.81346 c -3.137539,10.28477 -10.563746,20.70138 -6.724948,31.84356 6.787811,14.87685 16.092476,29.84505 31.224941,37.35722 14.57594,7.72851 31.92537,12.56222 41.97738,26.59189 6.02711,7.96866 7.27389,19.01624 2.94468,28.04544 -3.58128,8.00312 -7.54235,16.03413 -13.95655,22.18654 -1.02411,1.16325 -2.01852,2.3554 -2.91935,3.61766"
         id="path104" />
      <path
         style="fill:none;stroke:#800080;stroke-width:2;stroke-linecap:butt;stroke-linejoin:miter;stroke-miterlimit:4;stroke-dasharray:none;stroke-opacity:1"
         d="m 67.282092,108.37468 c -5.430193,23.02103 9.418303,45.57537 26.626622,59.53577 11.117326,9.6263 25.490866,17.05987 32.442956,30.42303 4.37384,14.55509 -6.03583,26.16803 -16.05981,34.97936"
         id="path104-4"
         sodipodi:nodetypes="cccccc" />
      <path
         style="fill:none;stroke:#800080;stroke-width:2;stroke-linecap:butt;stroke-linejoin:miter;stroke-miterlimit:4;stroke-dasharray:none;stroke-opacity:1"
         d="m 98.23846,109.94711 c -5.229525,18.07901 10.55251,34.08255 26.43944,39.65933 10.47877,5.15852 21.81711,7.92741 32.56342,12.31596 9.62788,4.77273 15.81044,14.0372 16.14333,24.88098 1.629,16.31625 -4.65473,32.15344 -10.11255,47.21502 -2.36485,5.09202 -5.27119,9.91103 -7.63268,15.00467"
         id="path3577" />
      <path
         style="fill:none;stroke:#800080;stroke-width:2;stroke-linecap:butt;stroke-linejoin:miter;stroke-miterlimit:4;stroke-dasharray:none;stroke-opacity:1"
         d="m 114.23077,186.48173 c -5.94064,16.28428 -17.548426,31.42372 -33.965138,38.03044 -13.335721,0.75854 -26.82856,-6.76042 -32.715988,-18.85924 -6.037473,-11.84194 -13.1629,-23.57966 -14.511234,-37.10571 l -0.197065,-1.48472"
         id="path5586" />
      <path
         style="fill:#800080;stroke:#800080;stroke-width:0.264583px;stroke-linecap:butt;stroke-linejoin:miter;stroke-opacity:1"
         d="m 74.398826,165.51224 c -1.88625,2.48046 -4.442185,5.28232 -6.808018,6.9578 1.840295,-1.54596 3.470263,-3.56184 4.630773,-5.58453 -2.682653,1.4088 -4.961795,3.45519 -7.627298,4.89373 -1.073527,0.60678 -2.131989,1.3178 -3.265355,1.77059 0.810349,-0.41417 1.412451,-0.87382 2.07584,-1.47907 0.70212,-0.61604 2.046928,-1.16739 1.845763,-2.35569 -0.316109,-0.91173 -1.503173,-1.01799 -2.319871,-0.83154 -1.596853,0.33475 -2.92493,1.34309 -4.442932,1.89553 -0.737176,0.3051 -2.086442,0.8644 -2.45015,0.99408 1.144746,-0.56192 3.280599,-1.21393 3.768069,-2.54599 0.298708,-1.17846 -2.541449,-1.92734 -2.541449,-1.92734 -1.168176,-0.30881 -1.87234,-0.65995 -2.93458,-0.22919 -1.508699,0.45756 -3.371199,1.15507 -4.935181,1.39033 1.887135,-0.0917 3.796016,-2.13918 3.796016,-2.13918 0,0 0.891229,-1.40084 0.06026,-2.39825 -0.436894,-1.28846 1.054859,0.62439 1.51215,0.80865 1.627222,0.90504 3.391512,1.96635 5.143297,2.61998 1.381981,0.30837 3.814596,0.85386 5.216685,0.5864 1.561299,-0.0303 2.828583,0.0984 4.325242,-0.71524 1.758105,-0.9963 6.185463,-3.88785 5.156876,-2.07449 z"
         id="path85"
         sodipodi:nodetypes="cccccccccsssccccccccsc" />
      <path
         style="fill:none;stroke:#800080;stroke-width:1.91303;stroke-linecap:butt;stroke-linejoin:miter;stroke-miterlimit:4;stroke-dasharray:none;stroke-opacity:1"
         d="m 63.059149,201.10895 c 1.596456,0.13939 3.21159,0.12733 4.78503,-0.19528 1.901724,-0.18625 3.83132,-0.21349 5.727387,0.0379 1.407442,0.065 1.954249,3.2302 3.304403,2.44853 1.270126,-0.69735 2.597305,-0.73088 3.589028,0.16959 2.516163,1.796 4.810539,3.873 7.227388,5.79514 -3.135561,1.57954 -6.302376,2.63818 -9.260367,3.56261 -0.711193,-0.0754 0,0 -0.683021,0.16827 -3.777955,-0.52931 -4.840653,-1.20564 -7.775756,-3.29858 0,0 -1.9854,-1.89229 -2.439468,-3.22634 -0.834109,-1.42255 -1.875653,-2.85741 -2.885132,-4.15483 -0.31259,-0.41818 -1.624255,-1.2064 -1.393147,-1.2354 2.107838,0.76433 3.793976,2.29621 5.615364,3.53352 1.305887,0.73903 2.653253,1.38742 4.056011,1.91959 4.858664,2.17429 9.852803,2.27136 14.765516,2.7311"
         id="path5092"
         sodipodi:nodetypes="ccccccccccccccc" />
    </g>
  </g>
</svg>
